<?xml version="1.0" encoding="iso-8859-1"?>
<!-- Generator: Adobe Illustrator 19.0.0, SVG Export Plug-In . SVG Version: 6.00 Build 0)  -->
<svg version="1.1" id="Capa_1" xmlns="http://www.w3.org/2000/svg" xmlns:xlink="http://www.w3.org/1999/xlink" x="0px" y="0px"
	 viewBox="0 0 512.001 512.001" style="enable-background:new 0 0 512.001 512.001;" xml:space="preserve">
<path style="fill:#FD4B2D;" d="M330.999,257.001H181.003V100.004c0-41.354,33.644-74.998,74.998-74.998s74.998,33.644,74.998,74.998
	V257.001z M211.002,227.001H301V100.004c0-24.812-20.187-44.999-44.999-44.999s-44.999,20.187-44.999,44.999L211.002,227.001
	L211.002,227.001z"/>
<path style="fill:#E8130F;" d="M256.001,25.006v29.999c24.812,0,44.999,20.187,44.999,44.999v126.997h-44.999v29.999h74.998V100.004
	C330.999,58.65,297.355,25.006,256.001,25.006z"/>
<path style="fill:#FD4B2D;" d="M436.808,486.995H75.193c-23.494,0-45.194-10.652-59.535-29.225
	c-14.294-18.513-19.1-42.1-13.185-64.713l43.432-166.055h420.188l43.432,166.055c5.915,22.613,1.109,46.201-13.185,64.713
	C482.003,476.343,460.303,486.995,436.808,486.995z"/>
<path style="fill:#E8130F;" d="M509.527,393.056l-43.432-166.055H256.001v259.994h180.808c23.494,0,45.194-10.652,59.535-29.225
	C510.636,439.257,515.442,415.67,509.527,393.056z"/>
<polygon style="fill:#FF6849;" points="403.268,376.998 108.734,376.998 45.907,227.001 466.095,227.001 "/>
<polygon style="fill:#FD4B2D;" points="256.001,227.001 256.001,376.998 403.268,376.998 466.095,227.001 "/>
<rect x="241.005" y="332.003" style="fill:#FFE871;" width="29.999" height="89.998"/>
<rect x="256.005" y="332.003" style="fill:#FFD32A;" width="15" height="89.998"/>
<g>
</g>
<g>
</g>
<g>
</g>
<g>
</g>
<g>
</g>
<g>
</g>
<g>
</g>
<g>
</g>
<g>
</g>
<g>
</g>
<g>
</g>
<g>
</g>
<g>
</g>
<g>
</g>
<g>
</g>
</svg>
